PathFileType	4	(X/Y/Z)	Walk8.trc
DataRate	CameraRate	NumFrames	NumMarkers	Units	OrigDataRate	OrigDataStartFrame	OrigNumFrames
200.000000	200.000000	5	55	mm	200.000000	893	935
Frame#	Times		LToe		LWRR		C7		RTH2		LACR1		RBHD		LElbow		LUA1		RMT1		LCAR		RCAR		RToe		LWRU		RTB2		LMMAL		RTB3		LTH3		RFA1		RTB4		RMT5		LMT5		RTB1		RMFC		RElbow		LTH4		RElbowM		RMMAL		RLFC		RCAL		LTB2		LPSI		LLFC		RPSI		RTH3		LTH2		T10		LASI		LCAL		LBHD		RBack		RASI		RFHD		LFHD		RACR1		LMT1		RLMAL		LLMAL		RUA1		RWRR		LTB1		LMFC		LTH1		LTB3		LTB4		RTH4
			X1	Y1	Z1	X2	Y2	Z2	X3	Y3	Z3	X4	Y4	Z4	X5	Y5	Z5	X6	Y6	Z6	X7	Y7	Z7	X8	Y8	Z8	X9	Y9	Z9	X10	Y10	Z10	X11	Y11	Z11	X12	Y12	Z12	X13	Y13	Z13	X14	Y14	Z14	X15	Y15	Z15	X16	Y16	Z16	X17	Y17	Z17	X18	Y18	Z18	X19	Y19	Z19	X20	Y20	Z20	X21	Y21	Z21	X22	Y22	Z22	X23	Y23	Z23	X24	Y24	Z24	X25	Y25	Z25	X26	Y26	Z26	X27	Y27	Z27	X28	Y28	Z28	X29	Y29	Z29	X30	Y30	Z30	X31	Y31	Z31	X32	Y32	Z32	X33	Y33	Z33	X34	Y34	Z34	X35	Y35	Z35	X36	Y36	Z36	X37	Y37	Z37	X38	Y38	Z38	X39	Y39	Z39	X40	Y40	Z40	X41	Y41	Z41	X42	Y42	Z42	X43	Y43	Z43	X44	Y44	Z44	X45	Y45	Z45	X46	Y46	Z46	X47	Y47	Z47	X48	Y48	Z48	X49	Y49	Z49	X50	Y50	Z50	X51	Y51	Z51	X52	Y52	Z52	X53	Y53	Z53	X54	Y54	Z54	X55	Y55	Z55

893	4.465	972.68	41.173	-103.24	889.53	812.76	-343	757.68	1486.5	-78.034	959.87	702.79	73.549	855.27	1421.8	-242.8	792.35	1617.4	-139.17	799.07	1079.9	-354.52	835.56	1216.1	-316.45	913.34	50.916	29.856	828.41	941.98	-354.55	872.63	804.38	204.09	956.38	64.928	70.983	963.36	807.57	-329.77	896.44	318.86	84.651	791.74	69.268	-56.441	869.48	234.46	10.153	839.9	581.45	-187.77	777.34	937.14	210.38	913.1	313.63	9.4103	869.03	61.382	98.564	886.61	23.616	-163.63	945.1	389.86	16.582	931.65	510.8	-34.554	740.7	1095.4	210.33	835.99	673.97	-210.2	706.06	1099.2	131.67	807.08	118.1	-14.468	942.84	543.77	91.195	716.4	95.163	-4.4898	846.14	297.91	-160.96	671.83	1042.2	-99.806	830.39	517.91	-178.54	666.61	1042.5	-30.995	930.83	588.34	94.359	897.96	682.44	-169.9	682.58	1229.9	-71.182	861.66	1036.3	-216.09	705.2	33.074	-91.326	790.22	1610.9	-2.5469	731.04	1377.5	75.607	855.35	1004.4	91.555	968.76	1653.3	-104.42	967.22	1651.2	-29.443	861.34	1431.2	81.859	924.4	30.371	-82.34	771.36	125.62	59.744	770.59	59.189	-139.08	819.23	1253.7	168.39	876.02	851.98	156.43	867.57	389.89	-91.765	813.19	498.51	-51.937	832.12	764.9	-229.12	831.17	208.49	-88.527	847.49	298.83	-88.744	901.81	677.67	111.31
894	4.47	972.97	40.739	-103.26	897.88	813.41	-342.92	761.89	1486.4	-78.053	964.76	703.51	72.906	859.4	1421.8	-242.87	796.48	1617.2	-139.25	804.8	1079.7	-355.01	840.47	1216.1	-316.79	929.98	50.489	29.805	835.43	942.02	-354.72	876.34	804.03	203.72	972.65	65.182	71.184	971.8	809.08	-329.86	906.56	318.1	84.359	791.78	69.173	-56.288	881.96	233.07	9.7978	842.37	581.3	-187.81	781.2	936.93	210.02	923.59	313.14	9.2681	885.1	59.852	98.298	886.66	23.617	-163.67	953.87	390.76	16.551	937.35	511.04	-34.648	744.71	1095.2	210.04	838.94	673.78	-210.31	710.09	1099.1	131.36	822.49	115.24	-15.041	948.67	544.38	90.937	732.24	90.349	-5.4838	847.15	297.55	-160.92	676.08	1042.1	-100.01	832.43	517.67	-178.61	670.88	1042.4	-31.205	936.41	589.02	94.275	900.84	682	-169.74	686.81	1229.8	-71.332	865.66	1036.3	-216.25	705.25	33.06	-91.219	794.38	1610.8	-2.6263	735.25	1377.4	75.527	859.5	1004.1	91.636	972.87	1653.3	-104.51	971.35	1651.2	-29.546	865.56	1431.1	81.812	924.5	30.501	-82.323	786.13	121.91	59.057	770.65	59.175	-138.98	823.31	1253.5	168.23	879.78	851.7	156.14	868.86	389.45	-91.699	815.04	498.34	-51.981	835.62	764.78	-229.2	831.77	208.22	-88.406	848.59	298.53	-88.71	907.07	678.22	111.13
895	4.475	973.25	40.327	-103.28	906.2	814.05	-342.83	766.13	1486.4	-78.061	969.58	704.15	72.246	863.54	1421.8	-242.93	800.63	1617.1	-139.31	810.56	1079.4	-355.49	845.37	1216.1	-317.12	946.72	50.17	29.772	842.47	942.03	-354.91	880.07	803.66	203.37	988.99	65.537	71.412	980.2	810.57	-329.92	916.65	317.35	84.083	791.85	69.084	-56.145	894.49	231.74	9.4699	844.87	581.13	-187.86	785.08	936.69	209.69	934.04	312.65	9.1743	901.27	58.409	98.046	886.71	23.611	-163.7	962.69	391.77	16.503	942.9	511.19	-34.726	748.76	1095	209.77	841.93	673.58	-210.42	714.16	1098.9	131.09	838.05	112.48	-15.61	954.37	544.92	90.693	748.31	85.608	-6.5012	848.17	297.18	-160.9	680.33	1042	-100.2	834.48	517.41	-178.69	675.16	1042.2	-31.403	941.89	589.66	94.229	903.7	681.55	-169.58	691.06	1229.7	-71.468	869.66	1036.1	-216.39	705.29	33.045	-91.12	798.57	1610.7	-2.6982	739.48	1377.2	75.456	863.64	1003.9	91.752	977	1653.2	-104.59	975.5	1651.2	-29.637	869.8	1430.9	81.772	924.59	30.641	-82.297	801.05	118.26	58.376	770.7	59.159	-138.88	827.4	1253.3	168.09	883.56	851.39	155.85	870.19	389	-91.66	816.92	498.16	-52.033	839.14	764.64	-229.29	832.37	207.93	-88.282	849.72	298.23	-88.694	912.25	678.7	110.96
896	4.48	973.52	39.934	-103.31	914.48	814.67	-342.72	770.39	1486.3	-78.059	974.31	704.7	71.575	867.7	1421.7	-242.98	804.8	1617	-139.36	816.35	1079.2	-355.96	850.27	1216	-317.45	963.53	49.969	29.759	849.52	942.02	-355.11	883.83	803.26	203.03	1005.4	65.998	71.667	988.54	812.02	-329.94	926.69	316.61	83.824	791.94	69.001	-56.011	907.04	230.45	9.1719	847.37	580.95	-187.93	788.99	936.43	209.38	944.45	312.17	9.1221	917.54	57.064	97.809	886.75	23.597	-163.74	971.52	392.89	16.438	948.3	511.25	-34.789	752.83	1094.8	209.52	844.95	673.36	-210.52	718.26	1098.8	130.84	853.76	109.83	-16.168	959.93	545.38	90.462	764.59	80.963	-7.5364	849.2	296.8	-160.88	684.6	1041.9	-100.37	836.55	517.15	-178.78	679.46	1042	-31.586	947.25	590.23	94.22	906.54	681.07	-169.43	695.31	1229.6	-71.59	873.66	1036	-216.53	705.33	33.034	-91.03	802.77	1610.6	-2.7613	743.73	1377	75.391	867.77	1003.6	91.895	981.16	1653.2	-104.66	979.67	1651.2	-29.715	874.07	1430.6	81.739	924.67	30.781	-82.263	816.11	114.7	57.706	770.76	59.143	-138.79	831.52	1253.1	167.97	887.38	851.04	155.58	871.55	388.56	-91.647	818.83	497.98	-52.094	842.68	764.49	-229.37	832.97	207.63	-88.161	850.87	297.93	-88.69	917.35	679.12	110.8
897	4.485	973.77	39.559	-103.35	922.73	815.27	-342.6	774.66	1486.1	-78.047	978.97	705.15	70.899	871.86	1421.6	-243.03	808.99	1616.8	-139.4	822.17	1078.9	-356.43	855.16	1215.9	-317.78	980.42	49.895	29.768	856.58	942	-355.33	887.61	802.84	202.72	1021.8	66.572	71.951	996.84	813.46	-329.93	936.69	315.9	83.584	792.05	68.922	-55.887	919.63	229.24	8.9054	849.88	580.77	-188.01	792.94	936.14	209.09	954.82	311.73	9.1046	933.9	55.827	97.588	886.8	23.575	-163.78	980.37	394.09	16.354	953.54	511.21	-34.845	756.93	1094.5	209.29	847.99	673.13	-210.62	722.4	1098.5	130.61	869.6	107.31	-16.71	965.35	545.77	90.243	781.07	76.436	-8.5824	850.22	296.43	-160.88	688.88	1041.8	-100.53	838.63	516.87	-178.88	683.77	1041.8	-31.753	952.49	590.75	94.247	909.36	680.57	-169.28	699.58	1229.5	-71.699	877.69	1035.8	-216.67	705.36	33.026	-90.949	807	1610.4	-2.8146	747.99	1376.8	75.331	871.91	1003.2	92.058	985.34	1653.1	-104.72	983.86	1651.1	-29.78	878.36	1430.4	81.711	924.75	30.912	-82.22	831.31	111.23	57.053	770.81	59.126	-138.7	835.67	1252.8	167.86	891.21	850.67	155.31	872.93	388.11	-91.656	820.77	497.8	-52.163	846.24	764.32	-229.45	833.56	207.33	-88.046	852.01	297.61	-88.697	922.35	679.46	110.65
